<?xml version="1.0" encoding="utf-8"?>
<!-- Generator: Adobe Illustrator 18.1.1, SVG Export Plug-In . SVG Version: 6.00 Build 0)  -->
<svg version="1.1" id="Layer_1" xmlns="http://www.w3.org/2000/svg" xmlns:xlink="http://www.w3.org/1999/xlink" x="0px" y="0px"
	 viewBox="-393 313 200 200" enable-background="new -393 313 200 200" xml:space="preserve">
<path d="M-388,413c0,52.5,42.5,95,95,95c18.3,0,35.4-5.1,49.9-14.1l-35.4-66.4h8.3l2.3,4.3c21-0.5,33.2-15.3,33.2-36.7
	c0-22.6-10.7-35.8-23-35.8c-15.7,0-20.7,7.7-26.8,39.3l-5.5,26.9c-6.5,31.6-15.5,41.2-36.7,41.2c-21,0-36.4-16.3-36.4-52.2
	c0-36.4,13.4-59.2,51.1-59.2v8c-25.7,0-43.2,10.5-43.2,48.5c0,35.2,12.6,46.7,28.7,46.7c14.9,0,22.4-6.7,27.7-35.6l5.7-29.6
	c5.5-28.9,12.5-42.1,34.9-42.1c14.3,0,31.5,15,31.5,43c0,26.1-14.8,44.3-36.9,45.4l26.7,50.1c23.7-17.3,39.1-45.2,39.1-76.8
	c0-52.5-42.5-95-95-95C-345.5,318-388,360.6-388,413L-388,413z"/>
</svg>
